<svg width="40" height="39" viewBox="0 0 40 39" fill="none" xmlns="http://www.w3.org/2000/svg">
<path d="M4.15777 17.808C3.37049 17.8102 2.59992 18.0352 1.93521 18.4571C1.2705 18.879 0.738812 19.4804 0.401665 20.1919C0.0645185 20.9033 -0.0643125 21.6957 0.0300771 22.4773C0.124467 23.2589 0.43822 23.9978 0.935037 24.6085L11.526 37.5825C11.9036 38.0514 12.3877 38.4234 12.938 38.6676C13.4882 38.9119 14.0888 39.0213 14.6899 38.9869C15.9754 38.9178 17.136 38.2301 17.876 37.0995L39.8761 1.66824C39.8797 1.66232 39.8835 1.65647 39.8873 1.65069C40.0938 1.33374 40.0268 0.705637 39.6007 0.311052C39.4837 0.202694 39.3457 0.119446 39.1953 0.0664323C39.0448 0.0134191 38.8851 -0.008236 38.726 0.00280109C38.5669 0.0138382 38.4117 0.0573338 38.27 0.130609C38.1284 0.203884 38.0032 0.305387 37.9022 0.428866C37.8943 0.438575 37.8862 0.448137 37.8778 0.457552L15.6904 25.5261C15.606 25.6215 15.5034 25.6991 15.3887 25.7546C15.274 25.81 15.1495 25.8421 15.0223 25.849C14.8951 25.8558 14.7678 25.8374 14.6477 25.7946C14.5277 25.7519 14.4174 25.6857 14.3232 25.6L6.9596 18.8991C6.19483 18.198 5.19525 17.8088 4.15777 17.808Z" fill="#151618"/>
</svg>
